<?xml version="1.0" encoding="UTF-8"?><svg id="Layer_1" xmlns="http://www.w3.org/2000/svg" viewBox="0 0 519.71 59.14"><defs><style>.cls-1{fill:#1d1d1b;}</style></defs><path class="cls-1" d="M53.84,22.53h-15.79c-.11-1.31-.4-2.49-.88-3.55-.47-1.06-1.13-1.98-1.96-2.76-.83-.77-1.83-1.37-3.01-1.79-1.17-.42-2.51-.63-4-.63-2.61,0-4.82,.64-6.62,1.91-1.8,1.27-3.16,3.09-4.09,5.46-.92,2.37-1.39,5.22-1.39,8.54,0,3.51,.47,6.44,1.41,8.8s2.31,4.13,4.1,5.32c1.79,1.19,3.95,1.78,6.47,1.78,1.44,0,2.73-.18,3.86-.55,1.14-.36,2.13-.89,2.97-1.58s1.53-1.53,2.06-2.5c.53-.98,.89-2.08,1.08-3.32l15.79,.11c-.19,2.42-.87,4.89-2.05,7.4-1.17,2.51-2.84,4.82-4.99,6.94-2.16,2.12-4.82,3.82-7.99,5.11-3.17,1.29-6.86,1.93-11.06,1.93-5.26,0-9.98-1.13-14.15-3.39-4.17-2.26-7.46-5.58-9.88-9.97C1.3,41.41,.09,36.05,.09,29.7S1.32,17.94,3.79,13.56,9.57,5.87,13.75,3.63,22.6,.25,27.75,.25c3.62,0,6.95,.49,9.99,1.48,3.04,.99,5.71,2.43,8.01,4.32,2.3,1.9,4.14,4.22,5.54,6.99,1.4,2.76,2.25,5.92,2.55,9.49Z"/><path class="cls-1" d="M116.42,29.7c0,6.38-1.24,11.76-3.72,16.14-2.48,4.37-5.83,7.69-10.05,9.94s-8.92,3.37-14.11,3.37-9.94-1.13-14.15-3.4-7.55-5.59-10.02-9.97c-2.47-4.37-3.71-9.73-3.71-16.08s1.24-11.76,3.71-16.14c2.47-4.37,5.81-7.69,10.02-9.94S83.32,.25,88.55,.25s9.89,1.13,14.11,3.37,7.57,5.56,10.05,9.94,3.72,9.75,3.72,16.14Zm-16.01,0c0-3.43-.45-6.33-1.36-8.69-.91-2.36-2.24-4.15-4-5.37-1.76-1.22-3.94-1.83-6.51-1.83s-4.75,.61-6.51,1.83c-1.76,1.22-3.1,3.01-4,5.37-.9,2.36-1.36,5.26-1.36,8.69s.45,6.33,1.36,8.69c.91,2.36,2.24,4.15,4,5.38,1.76,1.22,3.94,1.83,6.51,1.83s4.74-.61,6.51-1.83c1.76-1.22,3.1-3.01,4-5.38,.9-2.36,1.36-5.26,1.36-8.69Z"/><path class="cls-1" d="M123.59,1.04h19.37l13.32,32.47h.67L170.28,1.04h19.37V58.36h-15.23V25.22h-.45l-12.77,32.69h-9.18l-12.77-32.92h-.45V58.36h-15.23V1.04Z"/><path class="cls-1" d="M245.08,10.61c-1.77-3.02-4.27-5.39-7.42-7.03-3.22-1.71-6.96-2.56-11.17-2.56h-24.76V58.36h15.57v-17.01h8.6c4.4,0,8.21-.79,11.49-2.43,3.22-1.64,5.78-3.94,7.62-6.96,1.84-3.02,2.69-6.57,2.69-10.64s-.85-7.62-2.63-10.71Zm-14.65,14.91c-.66,1.18-1.71,2.1-2.96,2.76-1.31,.66-2.89,.99-4.73,.99h-5.45V13.43h5.45c1.84,0,3.42,.33,4.73,.99,1.25,.59,2.3,1.51,2.96,2.69,.72,1.12,1.05,2.56,1.05,4.2s-.33,3.02-1.05,4.2Z"/><path class="cls-1" d="M308.98,29.7c0,6.38-1.24,11.76-3.72,16.14-2.48,4.37-5.83,7.69-10.05,9.94s-8.92,3.37-14.11,3.37-9.94-1.13-14.15-3.4-7.55-5.59-10.02-9.97c-2.47-4.37-3.71-9.73-3.71-16.08s1.24-11.76,3.71-16.14c2.47-4.37,5.81-7.69,10.02-9.94s8.92-3.37,14.15-3.37,9.89,1.13,14.11,3.37,7.57,5.56,10.05,9.94,3.72,9.75,3.72,16.14Zm-16.01,0c0-3.43-.45-6.33-1.36-8.69-.91-2.36-2.24-4.15-4-5.37-1.76-1.22-3.94-1.83-6.51-1.83s-4.75,.61-6.51,1.83c-1.76,1.22-3.1,3.01-4,5.37-.9,2.36-1.36,5.26-1.36,8.69s.45,6.33,1.36,8.69c.91,2.36,2.24,4.15,4,5.38,1.76,1.22,3.94,1.83,6.51,1.83s4.74-.61,6.51-1.83c1.76-1.22,3.1-3.01,4-5.38,.9-2.36,1.36-5.26,1.36-8.69Z"/><path class="cls-1" d="M347.05,18.95c-.15-1.87-.84-3.32-2.08-4.37-1.24-1.05-3.12-1.57-5.64-1.57-1.6,0-2.92,.19-3.93,.57s-1.77,.9-2.25,1.55c-.48,.65-.73,1.4-.75,2.24-.04,.69,.09,1.31,.38,1.86,.29,.55,.75,1.05,1.39,1.48,.63,.44,1.44,.84,2.43,1.19,.99,.36,2.16,.67,3.53,.95l4.7,1.01c3.17,.67,5.89,1.56,8.14,2.66s4.11,2.39,5.54,3.88c1.44,1.48,2.5,3.15,3.18,5,.68,1.85,1.03,3.86,1.05,6.05-.02,3.77-.96,6.96-2.83,9.57-1.87,2.61-4.53,4.6-7.99,5.96-3.46,1.36-7.62,2.04-12.47,2.04s-9.33-.73-13.03-2.21c-3.7-1.48-6.58-3.75-8.62-6.82-2.05-3.07-3.08-7-3.1-11.8h14.78c.09,1.75,.53,3.23,1.31,4.42,.79,1.2,1.89,2.1,3.32,2.72,1.43,.62,3.13,.92,5.11,.92,1.66,0,3.05-.21,4.17-.62s1.97-.98,2.55-1.71c.58-.72,.88-1.56,.89-2.49-.02-.88-.3-1.65-.85-2.31-.55-.66-1.45-1.26-2.7-1.79-1.25-.53-2.94-1.03-5.07-1.5l-5.71-1.23c-5.08-1.1-9.07-2.94-12-5.53s-4.37-6.12-4.35-10.6c-.02-3.64,.96-6.83,2.93-9.56s4.7-4.87,8.2-6.4,7.51-2.3,12.05-2.3,8.63,.78,12.01,2.33,5.98,3.73,7.82,6.53c1.84,2.81,2.77,6.09,2.79,9.84h-14.89Z"/><path class="cls-1" d="M367.09,13.57V1.04h49.83V13.57h-17.24V58.36h-15.34V13.57h-17.24Z"/><path class="cls-1" d="M422.74,58.36V1.04h41.31V13.57h-25.75v9.85h23.63v12.54h-23.63v9.85h25.64v12.54h-41.2Z"/><path class="cls-1" d="M508.09,36.95c2.96-1.38,5.32-3.42,6.96-6.04,1.84-2.82,2.76-6.31,2.76-10.38s-.92-7.55-2.69-10.51c-1.77-2.89-4.2-5.12-7.42-6.63-3.22-1.58-6.9-2.36-11.17-2.36h-24.76V58.36h15.57v-18.92h5.39l10.05,18.92h16.95l-11.63-21.41Zm-20.76-23.52h5.52c1.84,0,3.35,.26,4.66,.79,1.31,.46,2.3,1.25,3.02,2.3,.66,.99,1.05,2.36,1.05,4.01s-.39,2.96-1.05,3.94c-.72,.99-1.71,1.71-3.02,2.17-1.31,.46-2.82,.72-4.66,.72h-5.52V13.43Z"/></svg>